inDegrees=no
num_controls=7
num_derivatives=13
num_iterations=108
num_multipliers=7
num_parameters=0
num_slacks=7
num_states=26
objective=0.453005
objective_accelerations=0.048239
objective_balance=0.001040
objective_effort=0.037481
objective_height=0.360614
objective_ligament=0.005631
solver_duration=1321.391033
status=Solve_Succeeded
success=true
DataType=double
version=3
OpenSimVersion=4.5
endheader
time	/jointset/ground_pelvis/pelvis_tilt/value	/jointset/ground_pelvis/pelvis_tx/value	/jointset/ground_pelvis/pelvis_ty/value	/jointset/hip_r/hip_flexion_r/value	/jointset/hip_r/hip_adduction_r/value	/jointset/hip_r/hip_rotation_r/value	/jointset/back/lumbar_extension/value	/jointset/patellofemoral_r/patellar_flexion_r/value	/jointset/knee_r/knee_flexion_r/value	/jointset/knee_r/knee_adduction_r/value	/jointset/knee_r/knee_rotation_r/value	/jointset/ankle_r/ankle_angle_r/value	/jointset/subtalar_r/subtalar_angle_r/value	/jointset/ground_pelvis/pelvis_tilt/speed	/jointset/ground_pelvis/pelvis_tx/speed	/jointset/ground_pelvis/pelvis_ty/speed	/jointset/hip_r/hip_flexion_r/speed	/jointset/hip_r/hip_adduction_r/speed	/jointset/hip_r/hip_rotation_r/speed	/jointset/back/lumbar_extension/speed	/jointset/patellofemoral_r/patellar_flexion_r/speed	/jointset/knee_r/knee_flexion_r/speed	/jointset/knee_r/knee_adduction_r/speed	/jointset/knee_r/knee_rotation_r/speed	/jointset/ankle_r/ankle_angle_r/speed	/jointset/subtalar_r/subtalar_angle_r/speed	/forceset/tau_hip_flexion_r	/forceset/tau_hip_adduction_r	/forceset/tau_hip_rotation_r	/forceset/tau_knee_flexion_r	/forceset/tau_ankle_angle_r	/forceset/tau_subtalar_angle_r	/forceset/tau_lumbar_extension	lambda_cid13_p0	lambda_cid14_p0	lambda_cid14_p1	lambda_cid14_p2	lambda_cid14_p3	lambda_cid14_p4	lambda_cid14_p5	/jointset/ground_pelvis/pelvis_tilt/accel	/jointset/ground_pelvis/pelvis_tx/accel	/jointset/ground_pelvis/pelvis_ty/accel	/jointset/hip_r/hip_flexion_r/accel	/jointset/hip_r/hip_adduction_r/accel	/jointset/hip_r/hip_rotation_r/accel	/jointset/back/lumbar_extension/accel	/jointset/patellofemoral_r/patellar_flexion_r/accel	/jointset/knee_r/knee_flexion_r/accel	/jointset/knee_r/knee_adduction_r/accel	/jointset/knee_r/knee_rotation_r/accel	/jointset/ankle_r/ankle_angle_r/accel	/jointset/subtalar_r/subtalar_angle_r/accel	gamma_cid13_p0	gamma_cid14_p0	gamma_cid14_p1	gamma_cid14_p2	gamma_cid14_p3	gamma_cid14_p4	gamma_cid14_p5
0	0.0003112943208217487	0.1277714854270454	0.9343733092933195	0.1934211968871041	-0.2159406398629593	-0.2373972316273053	-0.2903787966825928	0.2311786273363436	0.2311786273363406	0.1063677005039707	0.1617787452338305	0.089344008118978	0.07899317910446681	0	0	0	0	0	0	0	0	0	0	0	0	0	0.1075233050800116	-0.0315337906127601	0.001282278515998755	-0.239057070300595	0.1216284680888225	-0.08280821666426499	-0.02774291543833807	-29.50839886901114	-7.225261406578573	-33.40013892788719	1.37369227854917	3.023644080215896	-609.215226604346	36.08745885066716	-1.780834141327611	-1.845627630070825	-0.8617020360451431	9.881890506506643	0.05006544378691293	1.895193466456298	-6.290271912580168	10.24149216100983	10.24149216100987	-2.789501449664675	0.5504748946168068	2.821597376280356	0.8928339060997587	4.307232081646439e-08	2.540862106300221e-08	-3.364449649983181e-07	2.282165268089757e-07	1.171438156572625e-08	1.662886907866143e-07	-2.809816121198538e-07
0.01	0.0002280237578100052	0.1276808911471317	0.934331439495066	0.193901738454332	-0.2159365911282216	-0.2373035367829615	-0.2906946881581002	0.2316806572659862	0.2316806572659789	0.1062275814524825	0.1618039312386044	0.08948310378107584	0.07903915276685075	-0.0166163969819444	-0.01797393564482667	-0.00835033994704662	0.09561828994621821	0.0007822170573336657	0.01858154828342608	-0.06274842479674735	0.09992735497275958	0.09992735497275888	-0.02784212949720695	0.005075696685226017	0.02774661155502522	0.009142383895765169	0.1053985518824633	-0.04585382325627185	0.001457049613582723	-0.2396552818500205	0.1204365152204479	-0.0710668572230309	-0.02524043992301616	-29.51445399958284	-6.970904373487762	-28.09061717443912	0.3379245705276638	1.405748902718762	-610.875036823285	47.35728051005318	-1.596387776733028	-1.751536138280077	-0.8181237607434702	9.32829447522152	0.0881592072095838	1.816070957506691	-6.202647217409846	9.796553907718376	9.796553907718282	-2.754349404222688	0.4919375929365473	2.740322713833807	0.9170623635850125	4.383216057892454e-08	7.635071739146865e-09	-3.162988930239841e-07	2.533536872745616e-07	2.682911639237546e-08	3.46073104873088e-08	-2.986687107325388e-07
0.02	-2.027983504429752e-05	0.1274149055894512	0.9342067815400005	0.1953237621683273	-0.2159255483488083	-0.2370287393661397	-0.2916251677724135	0.2331676000938111	0.2331676000938097	0.1058144849651274	0.161881038317734	0.0898974914924673	0.07917497461464643	-0.03300660596808704	-0.03507825555334637	-0.01655763136244853	0.1882964293541202	0.001398808934783434	0.03622051449568743	-0.1229176277609998	0.1969825796378933	0.196982579637893	-0.05459548717337379	0.01038421486889461	0.05505840985885764	0.01796963708233486	0.1032737986849009	-0.06017385589977663	0.001631820711215475	-0.2402534933994548	0.1192445623520738	-0.05932549778178869	-0.02273796440770705	-29.53220999657361	-6.637286498392487	-22.78288260065865	-0.6796642230485428	-0.1862504279303287	-611.2682547474863	58.35877246462259	-1.735596542167203	-1.671704482809487	-0.8330923297161978	9.293860398843416	0.01694040781013123	1.706677052223353	-5.774427546081165	9.667066099484677	9.667066099484916	-2.571747085456646	0.5970391943053304	2.734634726041734	0.8298077642606413	4.45920003413847e-08	-1.013847758470848e-08	-2.961528210496501e-07	2.784908477401474e-07	4.194385121902466e-08	-9.707406981199672e-08	-3.163558093452237e-07
0.03	-0.0004312859293440348	0.1269815209621388	0.9340004795172424	0.1976589390058847	-0.2159091569085888	-0.2365819452224296	-0.2931443739470197	0.2356111515329254	0.2356111515329352	0.1051392928864406	0.1620119541639173	0.09058210409520361	0.07939731117548039	-0.04911023398404357	-0.05152320186681076	-0.02470036584306412	0.2783066483574094	0.001871430318505208	0.05309097700363282	-0.1805298485235897	0.2912708268152607	0.2912708268152579	-0.08028863280162397	0.01570363646705595	0.08172226206524154	0.02644923160117891	0.09773230829467784	-0.05751730761530126	0.001936720368032895	-0.2345893051845103	0.1117768196373355	-0.0577465796292292	-0.0181613055392137	-29.56100107346715	-8.947900053032049	-22.38923973333534	-0.8709127724050277	0.8472884572519708	-611.6474312059196	58.17504684104255	-1.535085655041561	-1.619561049578865	-0.8045228521720748	8.789760374511237	0.06122707528459871	1.670184158288593	-5.69555554575677	9.241162899759827	9.241162899759374	-2.544971875832151	0.4851491438890744	2.610985018757026	0.8497562107721164	5.068521063820331e-08	-1.893642829598843e-08	-3.270181766889311e-07	2.859029849816234e-07	5.321556542277265e-08	-1.882040479423131e-07	-3.305039507397289e-07
